<svg xmlns="http://www.w3.org/2000/svg" viewBox="0 0 640 560">
<defs>
 <linearGradient id="card" x1="0" y1="0" x2="1" y2="1">
   <stop offset="0" stop-color="#0F3D38"/><stop offset="0.5" stop-color="#0B2C42"/><stop offset="1" stop-color="#241A3E"/>
 </linearGradient>
 <linearGradient id="gc" x1="0" y1="0" x2="1" y2="1">
   <stop offset="0" stop-color="#C1D53E"/><stop offset="0.55" stop-color="#34D399"/><stop offset="1" stop-color="#0BAAE2"/>
 </linearGradient>
 <linearGradient id="cyan" x1="0" y1="0" x2="1" y2="1">
   <stop offset="0" stop-color="#22D3EE"/><stop offset="1" stop-color="#0BAAE2"/></linearGradient>
 <linearGradient id="lime" x1="0" y1="0" x2="1" y2="1">
   <stop offset="0" stop-color="#D9ED5B"/><stop offset="1" stop-color="#9BCB2E"/></linearGradient>
 <radialGradient id="coreGlow" cx="0.5" cy="0.5" r="0.5">
   <stop offset="0" stop-color="#34D399" stop-opacity="0.9"/><stop offset="0.5" stop-color="#0BAAE2" stop-opacity="0.25"/><stop offset="1" stop-color="#0BAAE2" stop-opacity="0"/></radialGradient>
 <filter id="glow" x="-60%" y="-60%" width="220%" height="220%">
   <feGaussianBlur stdDeviation="5" result="b"/><feMerge><feMergeNode in="b"/><feMergeNode in="SourceGraphic"/></feMerge></filter>
 <filter id="soft" x="-60%" y="-60%" width="220%" height="220%"><feGaussianBlur stdDeviation="9"/></filter>
 <pattern id="grid" width="34" height="34" patternUnits="userSpaceOnUse">
   <path d="M34 0H0V34" fill="none" stroke="#ffffff" stroke-opacity="0.05" stroke-width="1"/></pattern>
</defs><rect x="6" y="6" width="628" height="548" rx="28" fill="url(#card)"/><rect x="6" y="6" width="628" height="548" rx="28" fill="url(#grid)"/><rect x="6.5" y="6.5" width="627" height="547" rx="27.5" fill="none" stroke="#ffffff" stroke-opacity="0.10"/><ellipse cx="300" cy="250" rx="120" ry="60" fill="none" stroke="#22D3EE" stroke-opacity="0.25" stroke-width="1.5" transform="rotate(-18 300 250)"/><ellipse cx="300" cy="250" rx="160" ry="80" fill="none" stroke="#34D399" stroke-opacity="0.15" stroke-width="1.5" transform="rotate(22 300 250)"/><line x1="300.0" y1="250.0" x2="441.0" y2="290.0" stroke="#22D3EE" stroke-opacity="0.28" stroke-width="1.4"/><line x1="300.0" y1="250.0" x2="341.0" y2="338.0" stroke="#22D3EE" stroke-opacity="0.28" stroke-width="1.4"/><line x1="300.0" y1="250.0" x2="186.9" y2="338.2" stroke="#22D3EE" stroke-opacity="0.28" stroke-width="1.4"/><line x1="300.0" y1="250.0" x2="174.4" y2="223.8" stroke="#22D3EE" stroke-opacity="0.28" stroke-width="1.4"/><line x1="300.0" y1="250.0" x2="248.7" y2="140.1" stroke="#22D3EE" stroke-opacity="0.28" stroke-width="1.4"/><line x1="300.0" y1="250.0" x2="377.1" y2="178.3" stroke="#22D3EE" stroke-opacity="0.28" stroke-width="1.4"/><line x1="300.0" y1="250.0" x2="464.2" y2="215.7" stroke="#22D3EE" stroke-opacity="0.28" stroke-width="1.4"/><line x1="300.0" y1="250.0" x2="269.2" y2="316.0" stroke="#22D3EE" stroke-opacity="0.28" stroke-width="1.4"/><line x1="300.0" y1="250.0" x2="332.5" y2="180.4" stroke="#22D3EE" stroke-opacity="0.28" stroke-width="1.4"/><line x1="441.0" y1="290.0" x2="341.0" y2="338.0" stroke="#34D399" stroke-opacity="0.18" stroke-width="1.2"/><line x1="341.0" y1="338.0" x2="269.2" y2="316.0" stroke="#34D399" stroke-opacity="0.18" stroke-width="1.2"/><line x1="186.9" y1="338.2" x2="174.4" y2="223.8" stroke="#34D399" stroke-opacity="0.18" stroke-width="1.2"/><line x1="174.4" y1="223.8" x2="248.7" y2="140.1" stroke="#34D399" stroke-opacity="0.18" stroke-width="1.2"/><line x1="377.1" y1="178.3" x2="464.2" y2="215.7" stroke="#34D399" stroke-opacity="0.18" stroke-width="1.2"/><line x1="332.5" y1="180.4" x2="377.1" y2="178.3" stroke="#34D399" stroke-opacity="0.18" stroke-width="1.2"/><circle cx="356.4" cy="266.0" r="2.2" fill="#D9ED5B" opacity="0.9"/><circle cx="324.6" cy="302.8" r="2.2" fill="#D9ED5B" opacity="0.9"/><circle cx="243.4" cy="294.1" r="2.2" fill="#D9ED5B" opacity="0.9"/><circle cx="212.1" cy="231.6" r="2.2" fill="#D9ED5B" opacity="0.9"/><circle cx="276.9" cy="200.5" r="2.2" fill="#D9ED5B" opacity="0.9"/><circle cx="300" cy="250" r="110" fill="url(#coreGlow)"/><polygon points="345.0,276.0 300.0,302.0 255.0,276.0 255.0,224.0 300.0,198.0 345.0,224.0" fill="#0B2230" stroke="url(#gc)" stroke-width="3"/><polygon points="345.0,276.0 300.0,302.0 255.0,276.0 255.0,224.0 300.0,198.0 345.0,224.0" fill="none" stroke="url(#gc)" stroke-width="3" filter="url(#glow)" opacity="0.7"/><circle cx="300" cy="250" r="13" fill="url(#gc)" filter="url(#glow)"/><polygon points="320.8,262.0 300.0,274.0 279.2,262.0 279.2,238.0 300.0,226.0 320.8,238.0" fill="none" stroke="#0B2230" stroke-width="2"/><circle cx="441.0" cy="290.0" r="6" fill="url(#cyan)" filter="url(#glow)"/><circle cx="341.0" cy="338.0" r="4" fill="url(#cyan)" filter="url(#glow)"/><circle cx="186.9" cy="338.2" r="4" fill="url(#cyan)" filter="url(#glow)"/><circle cx="174.4" cy="223.8" r="6" fill="url(#cyan)" filter="url(#glow)"/><circle cx="248.7" cy="140.1" r="4" fill="url(#cyan)" filter="url(#glow)"/><circle cx="377.1" cy="178.3" r="4" fill="url(#cyan)" filter="url(#glow)"/><circle cx="464.2" cy="215.7" r="6" fill="url(#cyan)" filter="url(#glow)"/><circle cx="269.2" cy="316.0" r="4" fill="url(#cyan)" filter="url(#glow)"/><circle cx="332.5" cy="180.4" r="4" fill="url(#cyan)" filter="url(#glow)"/><g transform="translate(360,70)"><rect width="200" height="46" rx="14" fill="#0B1A22" fill-opacity="0.72" stroke="#ffffff" stroke-opacity="0.14"/><g transform="translate(15,11)"><path d="M12 1 L22 5 V12 C22 18 17 22 12 23 C7 22 2 18 2 12 V5 Z" fill="none" stroke="#34D399" stroke-width="2"/><path d="M7 12 l3 3 l6 -7" fill="none" stroke="#34D399" stroke-width="2" stroke-linecap="round" stroke-linejoin="round"/></g><text x="52" y="29" fill="#E7F6F1" font-family="Segoe UI,Arial,sans-serif" font-size="16" font-weight="600">Secure by design</text></g><g transform="translate(372,452)"><rect width="150" height="46" rx="14" fill="#0B1A22" fill-opacity="0.72" stroke="#ffffff" stroke-opacity="0.14"/><g transform="translate(15,11)"><path d="M12 1 L14 9 L22 11 L14 13 L12 21 L10 13 L2 11 L10 9 Z" fill="#22D3EE"/></g><text x="52" y="29" fill="#E7F6F1" font-family="Segoe UI,Arial,sans-serif" font-size="16" font-weight="600">AI-native</text></g><g transform="translate(56,420)"><rect width="150" height="46" rx="14" fill="#0B1A22" fill-opacity="0.72" stroke="#ffffff" stroke-opacity="0.14"/><g transform="translate(15,11)"><path d="M5 19 C5 15 9 6 16 4 C18 11 14 17 9 19 Z" fill="none" stroke="#C1D53E" stroke-width="2" stroke-linejoin="round"/><circle cx="13" cy="9" r="2" fill="#C1D53E"/></g><text x="52" y="29" fill="#E7F6F1" font-family="Segoe UI,Arial,sans-serif" font-size="16" font-weight="600">Ships fast</text></g></svg>